<?xml version="1.0" encoding="utf-8"?>
<!-- Generator: Adobe Illustrator 16.0.4, SVG Export Plug-In . SVG Version: 6.00 Build 0)  -->
<!DOCTYPE svg PUBLIC "-//W3C//DTD SVG 1.1//EN" "http://www.w3.org/Graphics/SVG/1.1/DTD/svg11.dtd">
<svg version="1.1" id="Warstwa_1" xmlns="http://www.w3.org/2000/svg" xmlns:xlink="http://www.w3.org/1999/xlink" x="0px" y="0px"
	 width="44px" height="44px" viewBox="0 0 44 44" enable-background="new 0 0 44 44" xml:space="preserve">
<circle opacity="0.2" fill="#FFFFFF" cx="22" cy="22" r="22"/>
<g opacity="0.65">
	<path fill="#FFFFFF" d="M22,6C12.932,6,5.579,13.344,5.579,22.405c0,7.249,4.705,13.397,11.229,15.567
		c0.82,0.152,1.121-0.355,1.121-0.789c0-0.392-0.015-1.684-0.021-3.055c-4.568,0.992-5.532-1.936-5.532-1.936
		c-0.747-1.896-1.823-2.4-1.823-2.4c-1.49-1.018,0.112-0.997,0.112-0.997c1.648,0.116,2.517,1.69,2.517,1.69
		c1.466,2.508,3.842,1.783,4.779,1.364c0.146-1.061,0.573-1.784,1.042-2.194c-3.646-0.414-7.481-1.821-7.481-8.107
		c0-1.791,0.643-3.254,1.691-4.404c-0.17-0.413-0.731-2.081,0.159-4.341c0,0,1.379-0.44,4.517,1.682
		c1.311-0.364,2.716-0.547,4.111-0.553c1.396,0.006,2.801,0.188,4.113,0.553c3.134-2.123,4.511-1.682,4.511-1.682
		c0.895,2.26,0.332,3.928,0.162,4.341c1.053,1.149,1.69,2.612,1.69,4.404c0,6.301-3.843,7.688-7.499,8.094
		c0.589,0.51,1.114,1.508,1.114,3.039c0,2.194-0.019,3.961-0.019,4.502c0,0.436,0.296,0.947,1.127,0.787
		c6.521-2.172,11.221-8.319,11.221-15.565C38.421,13.345,31.068,6,22,6L22,6z"/>
</g>
</svg>
