<?xml version="1.0" encoding="utf-8"?>
<!-- Generator: Adobe Illustrator 16.0.4, SVG Export Plug-In . SVG Version: 6.00 Build 0)  -->
<!DOCTYPE svg PUBLIC "-//W3C//DTD SVG 1.1//EN" "http://www.w3.org/Graphics/SVG/1.1/DTD/svg11.dtd">
<svg version="1.1" id="Warstwa_1" xmlns="http://www.w3.org/2000/svg" xmlns:xlink="http://www.w3.org/1999/xlink" x="0px" y="0px"
	 width="120px" height="118px" viewBox="0 0 120 118" enable-background="new 0 0 120 118" xml:space="preserve">
<g>
	<path fill="#0033CC" d="M13.125,0.854C10.64,1.425,8.427,2.256,6.471,3.355C4.518,4.453,2.948,5.837,1.77,7.505
		C0.594,9.171,0,11.068,0,13.183c0,1.38,0.227,2.478,0.674,3.296c0.445,0.814,0.996,1.441,1.646,1.892
		c0.651,0.445,1.405,0.731,2.257,0.854c0.856,0.118,1.688,0.182,2.506,0.182c0.568,0,1.279-0.022,2.135-0.064
		c0.855-0.039,1.665-0.219,2.439-0.546c0.774-0.326,1.443-0.838,2.015-1.528c0.569-0.689,0.854-1.644,0.854-2.87
		c0-0.239-0.041-0.689-0.119-1.34c-0.084-0.651-0.167-1.346-0.249-2.076c-0.079-0.734-0.16-1.4-0.242-2.015
		c-0.081-0.61-0.121-1.037-0.121-1.281c0-2.278,0.689-3.842,2.074-4.701c1.382-0.849,3.01-1.277,4.881-1.277
		c0.093,0,0.169,0.016,0.263,0.021V0.004C20.968,0.004,20.921,0,20.875,0C18.188,0,15.605,0.283,13.125,0.854z"/>
	<path fill="#0033CC" d="M116.704,83.365c-2.196-2.52-4.841-3.783-7.931-3.783c-1.059,0-2.136,0.165-3.233,0.489
		c-1.099,0.326-2.096,0.834-2.99,1.525c-0.896,0.692-1.628,1.586-2.196,2.685c-0.569,1.098-0.854,2.767-0.854,4.312
		c0,1.546,0.284,2.867,0.854,3.966c0.568,1.099,1.261,1.973,2.075,2.624c0.812,0.651,1.728,1.138,2.746,1.464
		c1.016,0.324,1.931,0.487,2.745,0.487c0.895,0,1.788-0.081,2.685-0.243c0.895-0.164,1.708-0.448,2.44-0.854
		c0.406,0.324,0.812,0.894,1.221,1.709c0.405,0.811,0.609,1.869,0.609,3.172c0,2.928-1.18,5.551-3.538,7.869
		c-2.36,2.318-5.533,4.86-9.519,7.627l0.855,1.586c1.708-1.059,3.578-2.3,5.612-3.722c2.032-1.425,3.924-3.093,5.675-5.003
		c1.748-1.912,3.19-4.087,4.332-6.527c1.138-2.44,1.707-5.207,1.707-8.298C119.999,89.813,118.9,85.889,116.704,83.365z"/>
	<path fill="#0033CC" d="M58.863,52.384h42.345c0.289,1.741,1.1,3.281,2.44,4.621c1.707,1.708,3.739,2.562,6.101,2.562
		c2.358,0,4.393-0.854,6.101-2.562c1.708-1.708,2.562-3.74,2.562-6.101c0-2.358-0.854-4.393-2.562-6.102
		c-1.708-1.708-3.742-2.562-6.101-2.562c-2.361,0-4.394,0.854-6.101,2.562c-1.653,1.653-2.503,3.612-2.558,5.873H86.438
		L58.497,14.68L72.162,1.746h7.809V0.039H60.815v1.708h8.908L47.027,22.611h-0.61V0.039H31.531v50.637h-8.053v1.708h30.505v-1.708
		h-7.565V24.319h0.61l20.621,26.356h-8.786V52.384z"/>
</g>
</svg>
