<?xml version="1.0" encoding="utf-8"?>
<!-- Generator: Adobe Illustrator 16.0.4, SVG Export Plug-In . SVG Version: 6.00 Build 0)  -->
<!DOCTYPE svg PUBLIC "-//W3C//DTD SVG 1.1//EN" "http://www.w3.org/Graphics/SVG/1.1/DTD/svg11.dtd">
<svg version="1.1" id="Warstwa_1" xmlns="http://www.w3.org/2000/svg" xmlns:xlink="http://www.w3.org/1999/xlink" x="0px" y="0px"
	 width="196px" height="24px" viewBox="0 0 196 24" enable-background="new 0 0 196 24" xml:space="preserve">
<g>
	<g>
		<g>
			<path d="M0.622,5.359c0.174,0.12,0.375,0.196,0.603,0.229c0.229,0.031,0.452,0.048,0.671,0.048c0.151,0,0.342-0.006,0.571-0.017
				c0.229-0.011,0.445-0.058,0.652-0.146c0.208-0.088,0.386-0.225,0.539-0.409c0.152-0.184,0.229-0.439,0.229-0.767
				c0-0.065-0.012-0.185-0.032-0.359c-0.022-0.175-0.044-0.36-0.067-0.555C3.766,3.188,3.744,3.01,3.723,2.846
				C3.701,2.682,3.69,2.568,3.69,2.502c0-0.609,0.184-1.028,0.555-1.257C4.614,1.018,5.05,0.904,5.55,0.904
				c0.025,0,0.046,0.004,0.07,0.005V0.448c-0.012,0-0.024-0.001-0.038-0.001c-0.718,0-1.41,0.075-2.073,0.229
				C2.845,0.827,2.254,1.049,1.731,1.344c-0.522,0.293-0.942,0.664-1.257,1.11C0.16,2.899,0,3.406,0,3.972
				c0,0.369,0.061,0.663,0.18,0.881C0.3,5.071,0.447,5.239,0.622,5.359z"/>
		</g>
	</g>
	<path d="M40.083,14.961c-0.577,0.087-1.116,0.13-1.615,0.13c-1.11,0-1.932-0.196-2.464-0.588c-0.534-0.391-0.865-0.935-0.996-1.631
		h-0.065c-0.348,0.869-0.827,1.457-1.436,1.762c-0.609,0.304-1.49,0.456-2.644,0.456c-0.522,0-1.055-0.054-1.599-0.163
		c-0.543-0.11-1.044-0.283-1.501-0.522c-0.457-0.238-0.827-0.569-1.109-0.995c-0.283-0.424-0.424-0.941-0.424-1.55
		c0-0.63,0.124-1.158,0.375-1.583c0.25-0.425,0.576-0.784,0.979-1.077s0.859-0.533,1.37-0.718c0.511-0.185,1.039-0.364,1.583-0.538
		c0.892-0.261,1.615-0.483,2.17-0.669c0.554-0.184,0.983-0.38,1.289-0.588c0.304-0.207,0.516-0.441,0.636-0.702
		c0.12-0.261,0.179-0.598,0.179-1.012V2.985c0-0.587-0.141-1.12-0.424-1.599c-0.283-0.479-0.815-0.718-1.599-0.718
		c-0.5,0-0.936,0.114-1.306,0.342c-0.37,0.229-0.554,0.647-0.554,1.257c0,0.065,0.011,0.179,0.032,0.342s0.043,0.343,0.065,0.538
		c0.021,0.196,0.043,0.382,0.065,0.556c0.022,0.174,0.033,0.294,0.033,0.359c0,0.326-0.077,0.582-0.229,0.766
		c-0.152,0.185-0.332,0.321-0.539,0.408c-0.206,0.087-0.424,0.136-0.652,0.147C29.476,5.396,29.285,5.4,29.133,5.4
		c-0.217,0-0.44-0.016-0.669-0.049c-0.229-0.032-0.429-0.108-0.604-0.229c-0.174-0.12-0.321-0.288-0.44-0.506
		c-0.121-0.217-0.18-0.511-0.18-0.881c0-0.566,0.158-1.071,0.473-1.517c0.316-0.446,0.734-0.816,1.257-1.11
		c0.521-0.293,1.114-0.515,1.777-0.668c0.664-0.152,1.355-0.228,2.073-0.228c0.827,0,1.604,0.065,2.333,0.195
		s1.359,0.37,1.892,0.718c0.534,0.348,0.957,0.821,1.273,1.419s0.473,1.355,0.473,2.269v8.092c0,0.414,0.061,0.778,0.179,1.093
		c0.12,0.316,0.419,0.474,0.897,0.474c0.283,0,0.517-0.054,0.702-0.163c0.185-0.109,0.364-0.261,0.538-0.456l0.294,0.293
		C41.099,14.602,40.659,14.873,40.083,14.961z M34.747,6.575c-0.044,0.131-0.125,0.256-0.245,0.375
		c-0.12,0.121-0.333,0.256-0.637,0.408c-0.413,0.196-0.826,0.387-1.239,0.571c-0.414,0.185-0.783,0.419-1.109,0.702
		c-0.327,0.283-0.593,0.631-0.8,1.044c-0.207,0.414-0.311,0.946-0.311,1.599c0,0.261,0.017,0.566,0.049,0.914
		c0.033,0.348,0.12,0.686,0.262,1.012c0.142,0.325,0.353,0.603,0.637,0.832c0.282,0.228,0.674,0.342,1.174,0.342
		c0.283,0,0.561-0.065,0.833-0.196c0.271-0.13,0.516-0.331,0.733-0.603c0.217-0.272,0.392-0.631,0.522-1.078
		c0.13-0.445,0.195-0.983,0.195-1.615V6.575H34.747z"/>
	<path d="M48.462,1.125c-0.587,0-1.087,0.07-1.5,0.212c-0.414,0.142-0.779,0.353-1.093,0.636c-0.316,0.283-0.593,0.643-0.833,1.077
		c-0.239,0.436-0.489,0.936-0.75,1.5h-0.359l0.49-3.883h11.649L48.168,14.21h3.98c0.674,0,1.234-0.12,1.68-0.359
		c0.446-0.239,0.816-0.548,1.11-0.929c0.293-0.38,0.533-0.816,0.718-1.306c0.185-0.49,0.364-0.973,0.538-1.452h0.359l-0.359,4.503
		H43.437l7.93-13.542L48.462,1.125L48.462,1.125z"/>
	<path d="M65.378,0.668V14.21h2.187v0.457h-8.354V14.21h2.187V1.125h-2.187V0.668H65.378z"/>
	<path d="M119.172,0.815c0.969,0.402,1.812,0.941,2.529,1.615c0.718,0.675,1.277,1.463,1.681,2.366
		c0.402,0.903,0.604,1.855,0.604,2.855c0,1.023-0.201,1.986-0.604,2.888c-0.403,0.903-0.963,1.692-1.681,2.366
		c-0.718,0.674-1.561,1.208-2.529,1.599c-0.968,0.392-2.018,0.588-3.149,0.588c-1.131,0-2.181-0.196-3.149-0.588
		c-0.968-0.391-1.811-0.923-2.528-1.599c-0.717-0.674-1.278-1.462-1.68-2.366c-0.403-0.902-0.604-1.865-0.604-2.888
		c0-1,0.201-1.952,0.604-2.855c0.401-0.902,0.963-1.691,1.68-2.366c0.718-0.674,1.561-1.212,2.528-1.615
		c0.97-0.402,2.019-0.604,3.149-0.604C117.155,0.212,118.205,0.414,119.172,0.815z M118.014,14.064
		c0.479-0.403,0.832-0.931,1.06-1.583c0.229-0.652,0.371-1.403,0.426-2.25c0.054-0.85,0.081-1.708,0.081-2.579
		c0-0.869-0.027-1.723-0.081-2.561c-0.055-0.838-0.197-1.583-0.424-2.235c-0.229-0.653-0.582-1.18-1.061-1.583
		c-0.479-0.402-1.143-0.604-1.991-0.604c-0.848,0-1.513,0.202-1.989,0.604c-0.479,0.402-0.834,0.93-1.062,1.583
		c-0.229,0.652-0.37,1.397-0.425,2.235c-0.054,0.838-0.081,1.692-0.081,2.561c0,0.872,0.027,1.729,0.081,2.579
		c0.055,0.847,0.196,1.598,0.425,2.25c0.229,0.653,0.582,1.181,1.062,1.583c0.477,0.403,1.142,0.604,1.989,0.604
		C116.873,14.667,117.536,14.467,118.014,14.064z"/>
	<path d="M125.979,1.125V0.668h3.655c0.914,0,1.757-0.021,2.529-0.066c0.771-0.043,1.614-0.065,2.528-0.065
		c1.196,0,2.284,0.185,3.263,0.555c0.979,0.37,1.816,0.876,2.513,1.517c0.696,0.642,1.229,1.392,1.599,2.252
		c0.37,0.859,0.555,1.79,0.555,2.79c0,1.023-0.185,1.964-0.555,2.822c-0.37,0.86-0.902,1.61-1.599,2.251
		c-0.696,0.643-1.533,1.143-2.513,1.501c-0.979,0.358-2.066,0.539-3.263,0.539c-0.914,0-1.757-0.016-2.528-0.049
		c-0.772-0.032-1.615-0.048-2.529-0.048h-3.655V14.21h2.155V1.125H125.979z M138.216,7.651c0-0.869-0.032-1.701-0.098-2.496
		c-0.066-0.794-0.229-1.5-0.489-2.121c-0.261-0.62-0.652-1.115-1.175-1.485c-0.521-0.369-1.24-0.555-2.154-0.555
		c-0.13,0-0.298,0-0.505,0s-0.42,0.006-0.637,0.016c-0.218,0.012-0.425,0.028-0.62,0.049c-0.196,0.021-0.337,0.043-0.425,0.065
		v13.085c0.239,0.043,0.593,0.076,1.062,0.098c0.467,0.022,0.875,0.033,1.224,0.033c0.826,0,1.489-0.185,1.991-0.555
		c0.499-0.371,0.885-0.859,1.157-1.469c0.272-0.608,0.452-1.315,0.538-2.121C138.173,9.392,138.216,8.544,138.216,7.651z"/>
	<path d="M150.224,0.668v10.344c0,0.827,0.164,1.528,0.489,2.104c0.326,0.577,0.903,0.865,1.729,0.865c0.5,0,0.957-0.119,1.37-0.359
		c0.413-0.239,0.768-0.56,1.061-0.963c0.293-0.401,0.521-0.875,0.686-1.418c0.163-0.543,0.244-1.11,0.244-1.697V1.125h-2.153V0.668
		h6.134V14.21h2.155v0.457h-6.07v-2.643h-0.065c-0.175,0.479-0.437,0.897-0.783,1.256c-0.349,0.359-0.746,0.663-1.191,0.915
		c-0.446,0.25-0.92,0.434-1.42,0.554c-0.501,0.12-0.989,0.179-1.469,0.179c-1.522,0-2.687-0.332-3.491-0.995
		c-0.805-0.663-1.207-1.79-1.207-3.377v-9.43h-2.187V0.668H150.224z"/>
	<path d="M164.325,1.125V0.668h6.167v15.37c0,1.131-0.093,2.18-0.277,3.148c-0.186,0.968-0.49,1.812-0.914,2.529
		c-0.425,0.718-0.984,1.277-1.681,1.681c-0.696,0.402-1.556,0.604-2.578,0.604c-1.173,0-2.136-0.245-2.888-0.734
		c-0.75-0.489-1.126-1.17-1.126-2.039c0-0.696,0.186-1.174,0.556-1.437c0.371-0.261,0.783-0.391,1.24-0.391
		c0.543,0,0.967,0.124,1.272,0.374c0.304,0.251,0.457,0.604,0.457,1.061c0,0.239-0.044,0.517-0.132,0.833
		c-0.086,0.314-0.13,0.591-0.13,0.832c0,0.217,0.044,0.445,0.13,0.686c0.088,0.238,0.393,0.358,0.914,0.358
		c0.393,0,0.686-0.12,0.882-0.358c0.196-0.24,0.294-0.784,0.294-1.633V1.125H164.325z"/>
	<path d="M178.417,7.945c0,0.784,0.032,1.572,0.098,2.366c0.064,0.794,0.238,1.512,0.521,2.154c0.282,0.642,0.695,1.169,1.24,1.583
		c0.543,0.414,1.306,0.62,2.284,0.62c0.869,0,1.604-0.164,2.202-0.49c0.598-0.325,1.088-0.701,1.469-1.125
		c0.382-0.424,0.663-0.843,0.849-1.256c0.185-0.413,0.288-0.718,0.31-0.914l0.457,0.163c-0.109,0.414-0.294,0.854-0.555,1.322
		c-0.262,0.468-0.619,0.903-1.077,1.306c-0.456,0.403-1.022,0.74-1.696,1.011c-0.675,0.272-1.49,0.408-2.448,0.408
		c-1.131,0-2.187-0.168-3.165-0.506c-0.979-0.336-1.832-0.826-2.562-1.469c-0.729-0.642-1.3-1.423-1.713-2.349
		c-0.414-0.923-0.62-1.974-0.62-3.149c0-0.935,0.196-1.848,0.588-2.741c0.392-0.891,0.931-1.68,1.615-2.366
		c0.685-0.685,1.489-1.239,2.414-1.664s1.92-0.636,2.986-0.636c0.761,0,1.522,0.12,2.284,0.359c0.761,0.239,1.446,0.609,2.056,1.109
		c0.608,0.501,1.11,1.148,1.501,1.942c0.392,0.793,0.587,1.746,0.587,2.854h-9.625V7.945z M183.639,3.833
		c0-0.238-0.013-0.533-0.034-0.881c-0.021-0.348-0.097-0.696-0.229-1.044c-0.13-0.348-0.343-0.642-0.636-0.881
		c-0.294-0.239-0.702-0.359-1.224-0.359c-0.741,0-1.311,0.174-1.714,0.521c-0.402,0.348-0.702,0.789-0.897,1.321
		c-0.195,0.534-0.32,1.111-0.374,1.729c-0.055,0.621-0.094,1.213-0.114,1.778h5.22V3.833H183.639z"/>
	<path d="M193.682,18.078c0.631-0.621,0.946-1.321,0.946-2.105c0-0.349-0.055-0.631-0.163-0.849
		c-0.109-0.217-0.218-0.37-0.326-0.456c-0.196,0.109-0.413,0.184-0.652,0.229c-0.239,0.042-0.479,0.064-0.718,0.064
		c-0.218,0-0.463-0.043-0.733-0.13c-0.272-0.087-0.518-0.217-0.734-0.392c-0.218-0.174-0.402-0.408-0.555-0.702
		c-0.153-0.294-0.229-0.646-0.229-1.061c0-0.413,0.075-0.766,0.229-1.06c0.152-0.293,0.347-0.533,0.588-0.718
		c0.237-0.185,0.505-0.32,0.799-0.408c0.293-0.087,0.582-0.13,0.865-0.13c0.826,0,1.533,0.338,2.121,1.012
		c0.588,0.675,0.881,1.632,0.881,2.872c0,0.826-0.152,1.565-0.456,2.219c-0.306,0.652-0.691,1.233-1.159,1.746
		c-0.468,0.511-0.974,0.956-1.518,1.336c-0.544,0.381-1.044,0.713-1.501,0.997l-0.229-0.426
		C192.204,19.377,193.051,18.697,193.682,18.078z M191.625,0.686C192.083,0.229,192.626,0,193.257,0c0.63,0,1.175,0.229,1.633,0.686
		c0.457,0.456,0.685,1,0.685,1.631c0,0.631-0.229,1.175-0.685,1.632c-0.457,0.457-1.003,0.686-1.633,0.686
		c-0.631,0-1.175-0.229-1.632-0.686c-0.456-0.457-0.685-1-0.685-1.632C190.941,1.686,191.169,1.143,191.625,0.686z"/>
	<polygon points="86.438,14.211 78.965,4.585 82.621,1.125 84.709,1.125 84.709,0.668 79.585,0.668 79.585,1.125 81.967,1.125 
		75.898,6.706 75.735,6.706 75.735,0.668 71.753,0.668 71.753,14.211 69.6,14.211 69.6,14.667 77.758,14.667 77.758,14.211 
		75.735,14.211 75.735,7.162 75.898,7.162 81.413,14.211 79.063,14.211 79.063,14.667 87.711,14.667 87.711,14.211 	"/>
	<polygon points="106.046,14.211 98.573,4.585 102.228,1.125 104.317,1.125 104.317,0.668 99.193,0.668 99.193,1.125 101.576,1.125 
		95.506,6.706 95.343,6.706 95.343,0.668 91.361,0.668 91.361,14.211 89.207,14.211 89.207,14.667 97.365,14.667 97.365,14.211 
		95.343,14.211 95.343,7.162 95.506,7.162 101.02,14.211 98.671,14.211 98.671,14.667 107.319,14.667 107.319,14.211 	"/>
	<polygon points="23.117,14.211 15.645,4.585 19.299,1.125 21.388,1.125 21.388,0.668 16.265,0.668 16.265,1.125 18.646,1.125 
		12.578,6.706 12.414,6.706 12.414,0.668 8.433,0.668 8.433,14.211 6.279,14.211 6.279,14.667 14.437,14.667 14.437,14.211 
		12.414,14.211 12.414,7.162 12.578,7.162 18.091,14.211 15.743,14.211 15.743,14.667 24.39,14.667 24.39,14.211 	"/>
</g>
</svg>
