<?xml version="1.0" encoding="utf-8"?>
<!-- Generator: Adobe Illustrator 16.0.4, SVG Export Plug-In . SVG Version: 6.00 Build 0)  -->
<!DOCTYPE svg PUBLIC "-//W3C//DTD SVG 1.1//EN" "http://www.w3.org/Graphics/SVG/1.1/DTD/svg11.dtd">
<svg version="1.1" id="Warstwa_1" xmlns="http://www.w3.org/2000/svg" xmlns:xlink="http://www.w3.org/1999/xlink" x="0px" y="0px"
	 width="44px" height="44px" viewBox="0 0 44 44" enable-background="new 0 0 44 44" xml:space="preserve">
<g>
	<circle opacity="0.2" fill="#FFFFFF" cx="22" cy="22" r="22"/>
	<g>
		<path fill="#FFFFFF" d="M17.952,20.569v8.301h1.34v0.279h-5.12v-0.279h1.34v-8.02h-1.34v-0.281H17.952z M15.732,15.271
			c0.28-0.281,0.613-0.42,1-0.42s0.72,0.139,1,0.42c0.28,0.279,0.42,0.613,0.42,1s-0.14,0.719-0.42,1c-0.28,0.279-0.613,0.42-1,0.42
			s-0.72-0.141-1-0.42c-0.28-0.281-0.42-0.613-0.42-1S15.452,15.55,15.732,15.271z"/>
		<path fill="#FFFFFF" d="M21.912,28.871v-8.02h-1.32v-0.281h3.72v2h0.04c0.054-0.119,0.146-0.303,0.28-0.549
			c0.133-0.248,0.326-0.49,0.58-0.73c0.252-0.24,0.58-0.449,0.979-0.631c0.399-0.18,0.899-0.27,1.5-0.27
			c0.88,0,1.563,0.254,2.05,0.76c0.486,0.508,0.73,1.201,0.73,2.081v5.641h1.34v0.279h-5.02v-0.279h1.239V22.55
			c0-0.561-0.113-0.971-0.34-1.23c-0.228-0.26-0.533-0.389-0.92-0.389c-0.319,0-0.627,0.076-0.92,0.229
			c-0.294,0.154-0.55,0.385-0.771,0.691c-0.22,0.307-0.396,0.686-0.529,1.139c-0.134,0.453-0.2,0.988-0.2,1.602v4.279h1.26v0.279
			h-5.02v-0.279H21.912z"/>
	</g>
</g>
</svg>
