<?xml version="1.0" encoding="utf-8"?>
<!-- Generator: Adobe Illustrator 16.0.4, SVG Export Plug-In . SVG Version: 6.00 Build 0)  -->
<!DOCTYPE svg PUBLIC "-//W3C//DTD SVG 1.1//EN" "http://www.w3.org/Graphics/SVG/1.1/DTD/svg11.dtd">
<svg version="1.1" id="Warstwa_1" xmlns="http://www.w3.org/2000/svg" xmlns:xlink="http://www.w3.org/1999/xlink" x="0px" y="0px"
	 width="172px" height="170px" viewBox="0 0 172 170" enable-background="new 0 0 172 170" xml:space="preserve">
<g>
	<path fill="#0033CC" d="M18.813,1.223c-3.563,0.819-6.734,2.011-9.538,3.586c-2.799,1.574-5.049,3.558-6.738,5.948
		C0.852,13.146,0,15.865,0,18.896c0,1.978,0.325,3.552,0.966,4.725c0.638,1.167,1.427,2.065,2.36,2.711
		C4.26,26.97,5.34,27.38,6.561,27.557c1.228,0.169,2.419,0.261,3.592,0.261c0.815,0,1.833-0.032,3.061-0.092
		c1.225-0.055,2.386-0.313,3.496-0.782c1.11-0.467,2.069-1.202,2.888-2.19c0.815-0.988,1.225-2.356,1.225-4.113
		c0-0.343-0.059-0.988-0.17-1.921c-0.121-0.933-0.24-1.929-0.357-2.975c-0.114-1.052-0.229-2.007-0.347-2.888
		c-0.115-0.874-0.173-1.486-0.173-1.836c0-3.265,0.988-5.507,2.972-6.738c1.981-1.217,4.315-1.831,6.997-1.831
		c0.133,0,0.243,0.023,0.376,0.031V0.006C30.054,0.006,29.987,0,29.921,0C26.071,0,22.368,0.406,18.813,1.223z"/>
	<path fill="#0033CC" d="M167.278,120.358c-3.148-3.612-6.938-5.422-11.368-5.422c-1.517,0-3.061,0.235-4.635,0.7
		c-1.574,0.467-3.004,1.196-4.285,2.186c-1.284,0.992-2.334,2.274-3.148,3.849c-0.816,1.573-1.224,3.966-1.224,6.18
		c0,2.216,0.407,4.11,1.224,5.684c0.814,1.574,1.807,2.828,2.974,3.761c1.164,0.935,2.476,1.631,3.936,2.099
		c1.456,0.464,2.768,0.699,3.935,0.699c1.281,0,2.563-0.117,3.848-0.35c1.281-0.235,2.448-0.643,3.498-1.225
		c0.582,0.465,1.164,1.282,1.749,2.449c0.582,1.164,0.874,2.681,0.874,4.547c0,4.197-1.691,7.958-5.071,11.28
		c-3.384,3.323-7.931,6.966-13.643,10.931l1.225,2.274c2.448-1.518,5.129-3.296,8.045-5.334c2.913-2.042,5.624-4.434,8.133-7.171
		c2.506-2.741,4.574-5.859,6.209-9.357c1.631-3.497,2.448-7.463,2.448-11.893C172,129.6,170.426,123.975,167.278,120.358z"/>
	<path fill="#0033CC" d="M84.371,75.084h60.695c0.414,2.495,1.577,4.703,3.498,6.623c2.448,2.449,5.361,3.673,8.744,3.673
		c3.381,0,6.297-1.224,8.745-3.673c2.448-2.448,3.673-5.361,3.673-8.745c0-3.38-1.225-6.296-3.673-8.745
		c-2.448-2.448-5.364-3.672-8.745-3.672c-3.383,0-6.296,1.224-8.744,3.672c-2.369,2.369-3.588,5.177-3.665,8.417h-21.003
		l-40.05-51.593l19.588-18.539h11.192V0.055H87.169v2.448h12.768L67.406,32.41h-0.875V0.055H45.195v72.581H33.652v2.449h43.724
		v-2.449H66.532V34.858h0.875l29.557,37.777H84.371V75.084z"/>
</g>
</svg>
